<svg width="161" height="65" viewBox="0 0 161 65" fill="none" xmlns="http://www.w3.org/2000/svg">
<path d="M93.1523 34.3789C93.1523 34.8477 92.8945 35.3867 92.3789 35.9961C91.8867 36.582 91.2539 37.2031 90.4805 37.8594C89.707 38.4922 88.8398 39.1367 87.8789 39.793C86.9414 40.4258 86.0039 41.0234 85.0664 41.5859C84.1523 42.1484 83.2969 42.6523 82.5 43.0977C81.7266 43.5195 81.1172 43.8477 80.6719 44.082C80.1797 44.3398 79.6758 44.5742 79.1602 44.7852C78.6445 44.9961 78.1523 45.2422 77.6836 45.5234C77.4492 45.6406 77.2383 45.7812 77.0508 45.9453C76.8633 46.0859 76.6758 46.2266 76.4883 46.3672C76.0898 46.6484 75.7148 46.8242 75.3633 46.8945C75.0117 46.9648 74.6953 47.0469 74.4141 47.1406C74.1562 47.2344 73.957 47.3984 73.8164 47.6328C73.6758 47.8906 73.6055 48.3125 73.6055 48.8984C72.9961 48.8984 72.3984 48.8398 71.8125 48.7227C71.2266 48.6289 70.6406 48.582 70.0547 48.582C69.6797 48.582 69.3164 48.6289 68.9648 48.7227C68.6367 48.8398 68.2969 48.957 67.9453 49.0742C67.6172 49.1914 67.2773 49.2969 66.9258 49.3906C66.5977 49.5078 66.2461 49.5664 65.8711 49.5664H64.2891C64.125 49.332 63.9492 49.1445 63.7617 49.0039C63.5742 48.8633 63.375 48.7344 63.1641 48.6172C62.9766 48.5234 62.7773 48.4297 62.5664 48.3359C62.3789 48.2422 62.1914 48.1133 62.0039 47.9492C61.7461 47.6914 61.4766 47.3867 61.1953 47.0352C60.9141 46.6836 60.6445 46.3438 60.3867 46.0156C59.918 45.4531 59.5312 44.8203 59.2266 44.1172C58.8984 43.4141 58.6406 42.6875 58.4531 41.9375C58.2422 41.1641 58.0898 40.3906 57.9961 39.6172C57.9023 38.8203 57.8555 38.0703 57.8555 37.3672C57.8555 37.2031 57.9258 36.8984 58.0664 36.4531C58.1836 35.9844 58.3359 35.4922 58.5234 34.9766C58.6875 34.4609 58.8633 33.9688 59.0508 33.5C59.2383 33.0312 59.3789 32.7031 59.4727 32.5156C59.4727 32.4453 59.5664 32.2695 59.7539 31.9883C59.918 31.6836 60.1289 31.332 60.3867 30.9336C60.6445 30.5352 60.9258 30.1016 61.2305 29.6328C61.5352 29.1406 61.8281 28.6836 62.1094 28.2617C62.3906 27.8398 62.6367 27.4648 62.8477 27.1367C63.0586 26.7852 63.2109 26.5391 63.3047 26.3984C63.4453 26.1875 63.6914 25.8359 64.043 25.3438C64.418 24.8516 64.8516 24.3008 65.3438 23.6914C65.8359 23.082 66.3633 22.4609 66.9258 21.8281C67.4883 21.1953 68.0273 20.6328 68.543 20.1406C69.082 19.625 69.5625 19.2383 69.9844 18.9805C70.4297 18.6992 70.7695 18.6055 71.0039 18.6992C71.9883 17.3867 73.2305 16.4258 74.7305 15.8164C76.2305 15.1836 77.7773 14.8672 79.3711 14.8672C79.9102 14.8672 80.4492 14.8438 80.9883 14.7969C81.5508 14.7266 82.0898 14.8555 82.6055 15.1836C82.8398 15.6055 83.0859 16.168 83.3438 16.8711C83.625 17.5742 83.8711 18.3242 84.082 19.1211C84.3164 19.8945 84.5039 20.6562 84.6445 21.4062C84.7852 22.1328 84.8555 22.7305 84.8555 23.1992C84.8555 23.7617 84.7266 24.2891 84.4688 24.7812C84.2344 25.2734 83.9414 25.7539 83.5898 26.2227C83.2383 26.6914 82.875 27.1602 82.5 27.6289C82.1484 28.0742 81.8555 28.5312 81.6211 29C81.4336 29.375 81.1992 29.9023 80.918 30.582C80.6602 31.2617 80.3555 31.9414 80.0039 32.6211C79.6523 33.2773 79.2656 33.8516 78.8438 34.3438C78.4219 34.8359 77.9648 35.082 77.4727 35.082C77.2148 35.082 76.9336 34.9297 76.6289 34.625C76.3242 34.3203 76.1719 34.0391 76.1719 33.7812C76.1719 32.8203 76.3242 31.9062 76.6289 31.0391C76.9336 30.1719 77.3086 29.3398 77.7539 28.543C78.1992 27.7227 78.6914 26.9258 79.2305 26.1523C79.7695 25.3555 80.2617 24.5586 80.707 23.7617C81.1523 22.9648 81.5273 22.1562 81.832 21.3359C82.1367 20.4922 82.2891 19.6133 82.2891 18.6992C82.2891 18.3711 82.2539 18.0195 82.1836 17.6445C82.1367 17.2461 81.9492 16.9531 81.6211 16.7656H80.0039C79.3945 16.7656 78.75 16.8125 78.0703 16.9062C77.3906 16.9766 76.8164 17.2461 76.3477 17.7148C76.1602 17.9023 75.9727 18.1133 75.7852 18.3477C75.6211 18.5586 75.4453 18.7578 75.2578 18.9453C75.2109 18.9922 75.1406 19.0742 75.0469 19.1914C74.9531 19.2852 74.8477 19.3906 74.7305 19.5078C74.6367 19.625 74.5312 19.7305 74.4141 19.8242C74.3203 19.918 74.25 19.9766 74.2031 20C74.1094 20.0469 74.0039 20.0938 73.8867 20.1406C73.793 20.1875 73.6992 20.2344 73.6055 20.2812C73.418 20.375 73.2305 20.4688 73.043 20.5625C72.8555 20.6328 72.668 20.7266 72.4805 20.8438C71.9883 21.1719 71.543 21.5586 71.1445 22.0039C70.7695 22.4492 70.3945 22.9062 70.0195 23.375C69.668 23.8438 69.293 24.2891 68.8945 24.7109C68.4961 25.1328 68.0273 25.4844 67.4883 25.7656C66.8789 26.7734 66.1992 27.8398 65.4492 28.9648C64.7227 30.0664 64.0312 31.2031 63.375 32.375C62.7188 33.5469 62.168 34.7422 61.7227 35.9609C61.2773 37.1797 61.0547 38.3867 61.0547 39.582C61.0547 40.0742 61.1016 40.6484 61.1953 41.3047C61.2891 41.9375 61.4531 42.5586 61.6875 43.168C61.9219 43.7773 62.2148 44.3164 62.5664 44.7852C62.9414 45.2539 63.4102 45.5586 63.9727 45.6992C64.1367 45.7461 64.3008 45.7695 64.4648 45.7695C64.6523 45.7461 64.8281 45.7344 64.9922 45.7344C65.1562 45.7344 65.3086 45.7461 65.4492 45.7695C65.6133 45.793 65.7539 45.875 65.8711 46.0156H67.8047C68.25 46.0156 68.6602 45.9805 69.0352 45.9102C69.4102 45.8398 69.7734 45.7461 70.125 45.6289C70.4766 45.4883 70.8281 45.3477 71.1797 45.207C71.5312 45.043 71.9062 44.8789 72.3047 44.7148C72.5391 44.6445 72.75 44.5742 72.9375 44.5039C73.125 44.4336 73.3242 44.3633 73.5352 44.293C74.0508 44.1523 74.5547 44.0352 75.0469 43.9414C75.5391 43.8477 76.0195 43.6836 76.4883 43.4492C77.0508 43.168 77.5781 42.8516 78.0703 42.5C78.5859 42.1484 79.125 41.8203 79.6875 41.5156C79.8516 41.4453 80.0508 41.3984 80.2852 41.375C80.543 41.3516 80.8008 41.3398 81.0586 41.3398C81.3164 41.3164 81.5508 41.293 81.7617 41.2695C81.9961 41.2461 82.1602 41.1875 82.2539 41.0938C82.4648 40.8828 82.6641 40.6719 82.8516 40.4609C83.0625 40.2266 83.2852 40.0039 83.5195 39.793C83.918 39.7227 84.293 39.5703 84.6445 39.3359C84.9961 39.1016 85.3711 38.9492 85.7695 38.8789C85.8867 38.832 85.9922 38.7852 86.0859 38.7383C86.2031 38.668 86.3203 38.5977 86.4375 38.5273C86.7656 38.3398 87.082 38.1406 87.3867 37.9297C87.6914 37.7188 87.9961 37.5195 88.3008 37.332C89.8008 36.3242 91.3125 35.3398 92.8359 34.3789H93.1523ZM112.875 43.3086C112.547 43.8711 112.289 44.3281 112.102 44.6797C111.938 45.0078 111.762 45.2891 111.574 45.5234C111.41 45.7344 111.211 45.9336 110.977 46.1211C110.766 46.2852 110.461 46.4961 110.062 46.7539C109.805 46.9883 109.547 47.1875 109.289 47.3516C109.078 47.5156 108.867 47.6562 108.656 47.7734C108.469 47.8906 108.316 47.9492 108.199 47.9492C108.152 47.9492 108.105 47.9375 108.059 47.9141C108.012 47.9141 107.965 47.9141 107.918 47.9141C107.777 47.9141 107.637 47.9141 107.496 47.9141C107.379 47.9375 107.273 47.8555 107.18 47.668C107.109 47.7383 107.051 47.8203 107.004 47.9141C106.957 48.0078 106.91 48.0898 106.863 48.1602C106.816 48.2539 106.746 48.3242 106.652 48.3711C106.582 48.418 106.477 48.418 106.336 48.3711L106.16 48.1602L105.633 48.6172C104.977 48.2891 104.344 48.0078 103.734 47.7734C103.148 47.5625 102.621 47.3047 102.152 47C101.684 46.6953 101.285 46.3086 100.957 45.8398C100.629 45.3477 100.395 44.6797 100.254 43.8359C100.137 43.6953 100.008 43.5781 99.8672 43.4844C99.7266 43.3672 99.5625 43.332 99.375 43.3789C99.1406 43.7773 98.8594 44.1172 98.5312 44.3984C98.2031 44.6797 97.875 44.9844 97.5469 45.3125C97.4297 45.4297 97.3359 45.5586 97.2656 45.6992C97.1953 45.8398 97.1016 45.9688 96.9844 46.0859C96.7969 46.2969 96.5742 46.4492 96.3164 46.543C96.0586 46.6133 95.8008 46.6836 95.543 46.7539C95.2852 46.8242 95.0391 46.9414 94.8047 47.1055C94.5938 47.2695 94.4414 47.5508 94.3477 47.9492C94.0664 47.7852 93.7852 47.7383 93.5039 47.8086C93.293 47.8555 93.0703 47.9023 92.8359 47.9492C92.6016 48.0195 92.3672 48.0547 92.1328 48.0547C91.9219 48.0781 91.7109 48.0547 91.5 47.9844C91.2891 47.9141 91.1016 47.7617 90.9375 47.5273C90.6094 47.668 90.3047 47.6562 90.0234 47.4922C89.7422 47.3516 89.4727 47.1523 89.2148 46.8945C88.9805 46.6133 88.7461 46.3203 88.5117 46.0156C88.2773 45.7109 88.0547 45.4883 87.8438 45.3477C87.7031 44.9727 87.7148 44.6562 87.8789 44.3984C88.0195 44.1172 88.1836 43.8594 88.3711 43.625C88.5352 43.3672 88.6523 43.1211 88.7227 42.8867C88.793 42.6289 88.6875 42.3242 88.4062 41.9727C88.6406 41.6211 88.8516 41.2578 89.0391 40.8828C89.2266 40.4844 89.4141 40.0977 89.6016 39.7227C89.8125 39.3242 90.0234 38.9492 90.2344 38.5977C90.4688 38.2227 90.75 37.9062 91.0781 37.6484C90.9375 37.4844 90.8672 37.332 90.8672 37.1914C90.8672 37.0273 90.9023 36.875 90.9727 36.7344C91.043 36.5703 91.125 36.418 91.2188 36.2773C91.3125 36.1133 91.3828 35.9609 91.4297 35.8203L92.4492 35.3281L92.2031 34.4844C92.4609 34.5312 92.6484 34.5195 92.7656 34.4492C92.9062 34.3789 93 34.2734 93.0469 34.1328C93.1172 33.9922 93.1641 33.8398 93.1875 33.6758C93.2344 33.4883 93.293 33.3242 93.3633 33.1836C93.4805 32.9727 93.6562 32.8203 93.8906 32.7266C94.3828 32.3516 94.8633 31.9531 95.332 31.5312C95.8242 31.1094 96.3047 30.6992 96.7734 30.3008C97.2656 29.9023 97.7695 29.5273 98.2852 29.1758C98.8008 28.8008 99.3633 28.4844 99.9727 28.2266C100.395 28.2969 100.723 28.4258 100.957 28.6133C101.215 28.8008 101.402 29.0234 101.52 29.2812C101.66 29.5391 101.766 29.832 101.836 30.1602C101.906 30.4648 101.977 30.7695 102.047 31.0742C102.164 31.4727 102.305 31.8125 102.469 32.0938C102.633 32.375 102.914 32.6094 103.312 32.7969C102.984 33.3594 102.855 33.9219 102.926 34.4844C102.996 35.0234 103.066 35.5977 103.137 36.207C103.207 36.7695 103.195 37.3203 103.102 37.8594C103.031 38.3984 102.691 38.8789 102.082 39.3008C102.035 39.4648 102.023 39.6406 102.047 39.8281C102.07 40.0156 102.082 40.2031 102.082 40.3906C102.082 40.5781 102.047 40.7539 101.977 40.918C101.906 41.082 101.777 41.2109 101.59 41.3047C101.801 41.5625 101.906 41.8203 101.906 42.0781C101.93 42.3359 101.941 42.582 101.941 42.8164C101.965 43.0508 102.023 43.2617 102.117 43.4492C102.234 43.6367 102.492 43.7773 102.891 43.8711C102.961 44.1758 103.02 44.4102 103.066 44.5742C103.137 44.7148 103.207 44.832 103.277 44.9258C103.371 45.0195 103.488 45.1133 103.629 45.207C103.77 45.2773 103.957 45.3945 104.191 45.5586C104.379 45.6055 104.59 45.6055 104.824 45.5586C105.059 45.5117 105.246 45.582 105.387 45.7695C105.504 45.6523 105.645 45.5938 105.809 45.5938C105.973 45.5703 106.125 45.5703 106.266 45.5938L106.723 46.3672C106.98 46.1797 107.273 46.0156 107.602 45.875C107.93 45.7344 108.246 45.6172 108.551 45.5234C108.902 45.4297 109.254 45.3477 109.605 45.2773L112.875 43.3086ZM99.375 31.2852C99.1641 31.4727 98.9062 31.6602 98.6016 31.8477C98.2969 32.0352 97.9922 32.2344 97.6875 32.4453C97.4062 32.6562 97.1602 32.8906 96.9492 33.1484C96.7383 33.3828 96.6094 33.6641 96.5625 33.9922C96.0234 34.0859 95.6484 34.3086 95.4375 34.6602C95.2266 35.0117 95.0508 35.3984 94.9102 35.8203C94.7695 36.2422 94.6172 36.6641 94.4531 37.0859C94.2891 37.4844 93.9961 37.8008 93.5742 38.0352C93.4336 38.1289 93.3047 38.1758 93.1875 38.1758C93.2109 38.1758 93.1406 38.2227 92.9766 38.3164C92.7188 38.5039 92.4961 38.7383 92.3086 39.0195C92.1211 39.3008 91.957 39.6055 91.8164 39.9336C91.6992 40.2617 91.582 40.6016 91.4648 40.9531C91.3711 41.2812 91.2773 41.5859 91.1836 41.8672C90.8555 41.9141 90.6094 41.9844 90.4453 42.0781C90.2812 42.1719 90.1758 42.2773 90.1289 42.3945C90.1055 42.4883 90.1172 42.6055 90.1641 42.7461C90.2109 42.8867 90.2812 43.0391 90.375 43.2031C90.4688 43.3438 90.5625 43.5078 90.6562 43.6953C90.7734 43.8828 90.8672 44.0703 90.9375 44.2578C91.0078 44.4453 91.043 44.6328 91.043 44.8203C91.0664 45.0078 91.0195 45.1836 90.9023 45.3477C91.2305 45.6055 91.5469 45.6641 91.8516 45.5234C92.1562 45.3594 92.4375 45.1836 92.6953 44.9961C92.7891 44.9258 92.8828 44.8555 92.9766 44.7852C93.0938 44.6914 93.2109 44.6211 93.3281 44.5742C93.8672 44.6914 94.3594 44.6562 94.8047 44.4688C95.25 44.2812 95.6602 44.0234 96.0352 43.6953C96.4102 43.3672 96.7734 43.0156 97.125 42.6406C97.4766 42.2656 97.8281 41.9375 98.1797 41.6562L97.8984 41.375C98.3203 41.2578 98.6133 41.1055 98.7773 40.918C98.9648 40.707 99.082 40.4727 99.1289 40.2148C99.1758 39.957 99.1758 39.6875 99.1289 39.4062C99.082 39.1016 99.0469 38.7852 99.0234 38.457C99 38.2695 98.9883 38.0938 98.9883 37.9297C99.0117 37.7422 99.0586 37.5547 99.1289 37.3672C98.9414 36.8281 98.9062 36.3125 99.0234 35.8203C99.1641 35.3281 99.3398 34.8594 99.5508 34.4141C99.7852 33.9453 100.008 33.4766 100.219 33.0078C100.43 32.5391 100.535 32.0469 100.535 31.5312L99.375 31.2852ZM137.766 37.4375C137.719 38.0703 137.543 38.6328 137.238 39.125C136.957 39.6172 136.605 40.0742 136.184 40.4961C135.762 40.8945 135.305 41.2812 134.812 41.6562C134.32 42.0078 133.875 42.3828 133.477 42.7812C133.547 43.2734 133.477 43.5664 133.266 43.6602C133.055 43.7539 132.797 43.8125 132.492 43.8359C132.211 43.8359 131.918 43.8711 131.613 43.9414C131.332 43.9883 131.145 44.2227 131.051 44.6445C130.723 44.6445 130.453 44.75 130.242 44.9609C130.031 45.1719 129.82 45.3945 129.609 45.6289C129.398 45.8398 129.152 46.0273 128.871 46.1914C128.613 46.332 128.273 46.3672 127.852 46.2969C127.734 46.5312 127.582 46.6836 127.395 46.7539C127.207 46.8242 127.008 46.8711 126.797 46.8945C126.586 46.918 126.375 46.9531 126.164 47C125.977 47.0469 125.812 47.1641 125.672 47.3516L125.145 46.5781C124.137 47.0234 123.152 47.2109 122.191 47.1406C121.254 47.0703 120.258 46.9648 119.203 46.8242C119.062 46.5664 118.898 46.332 118.711 46.1211C118.547 45.9102 118.371 45.6992 118.184 45.4883C118.02 45.2773 117.855 45.0664 117.691 44.8555C117.551 44.6445 117.434 44.3984 117.34 44.1172L117.867 43.5898L117.34 43.0625C117.34 42.875 117.352 42.6641 117.375 42.4297C117.398 42.1953 117.398 41.9727 117.375 41.7617C117.375 41.5273 117.328 41.3164 117.234 41.1289C117.164 40.918 117.012 40.7539 116.777 40.6367C116.238 41.1523 115.77 41.7266 115.371 42.3594C114.996 42.9688 114.621 43.6016 114.246 44.2578C113.895 44.9141 113.52 45.5586 113.121 46.1914C112.723 46.8242 112.242 47.3984 111.68 47.9141C111.797 48.2656 111.762 48.5 111.574 48.6172C111.387 48.7344 111.152 48.8516 110.871 48.9688C110.426 48.5234 110.168 48.0547 110.098 47.5625C110.004 47.0938 110.016 46.6016 110.133 46.0859C110.25 45.5703 110.426 45.0664 110.66 44.5742C110.871 44.0586 111.07 43.5664 111.258 43.0977C111.375 42.8164 111.469 42.5469 111.539 42.2891C111.586 42.0312 111.633 41.75 111.68 41.4453C111.727 41.2578 111.773 41.082 111.82 40.918C111.891 40.7305 111.949 40.543 111.996 40.3555C112.09 39.957 112.172 39.582 112.242 39.2305C112.336 38.8555 112.406 38.4688 112.453 38.0703C112.688 36.6875 112.91 35.3047 113.121 33.9219C113.355 32.5156 113.742 31.168 114.281 29.8789C114.375 28.6367 114.68 27.5 115.195 26.4688C115.711 25.4375 116.309 24.418 116.988 23.4102C116.895 23.1523 116.906 22.8711 117.023 22.5664C117.164 22.2383 117.34 21.9219 117.551 21.6172C117.785 21.2891 118.02 20.9844 118.254 20.7031C118.512 20.3984 118.711 20.1406 118.852 19.9297C118.57 19.5547 118.523 19.2383 118.711 18.9805C118.922 18.7227 119.191 18.4648 119.52 18.207C119.848 17.9492 120.141 17.6797 120.398 17.3984C120.68 17.1172 120.75 16.7773 120.609 16.3789C120.75 16.0742 120.984 15.8398 121.312 15.6758C121.641 15.5117 121.98 15.3594 122.332 15.2188C122.684 15.0781 123 14.9258 123.281 14.7617C123.562 14.5742 123.727 14.3164 123.773 13.9883C124.383 13.9648 124.898 14.0703 125.32 14.3047C125.742 14.5156 126.129 14.8555 126.48 15.3242C126.457 15.4883 126.457 15.6875 126.48 15.9219C126.504 16.1328 126.516 16.3555 126.516 16.5898C126.516 16.8008 126.492 17.0117 126.445 17.2227C126.422 17.4102 126.34 17.5742 126.199 17.7148C126.387 17.8555 126.457 18.043 126.41 18.2773C126.387 18.4883 126.316 18.7109 126.199 18.9453C126.105 19.1797 126 19.4141 125.883 19.6484C125.766 19.8828 125.707 20.0938 125.707 20.2812C125.684 20.9375 125.508 21.6055 125.18 22.2852C124.875 22.9414 124.5 23.5039 124.055 23.9727C123.773 25.1445 123.41 26.2812 122.965 27.3828C122.52 28.4609 121.898 29.4688 121.102 30.4062C121.195 30.6172 121.172 30.8047 121.031 30.9688C120.914 31.1094 120.773 31.2617 120.609 31.4258C120.469 31.5664 120.363 31.707 120.293 31.8477C120.246 31.9883 120.34 32.1406 120.574 32.3047C121.254 31.25 122.109 30.4414 123.141 29.8789C124.195 29.3164 125.309 28.8711 126.48 28.543C126.645 28.707 126.809 28.8242 126.973 28.8945C127.16 28.9414 127.348 29 127.535 29.0703C127.676 28.7891 127.84 28.6484 128.027 28.6484C128.215 28.6484 128.402 28.7188 128.59 28.8594C128.777 28.9766 128.965 29.1172 129.152 29.2812C129.363 29.4453 129.551 29.5508 129.715 29.5977C130.066 29.8555 130.289 30.1602 130.383 30.5117C130.477 30.8633 130.523 31.2383 130.523 31.6367C130.523 32.0117 130.523 32.3984 130.523 32.7969C130.523 33.1953 130.605 33.5586 130.77 33.8867C130.348 34.7305 129.809 35.5156 129.152 36.2422C128.52 36.9688 127.898 37.707 127.289 38.457L127.008 38.2109C126.352 38.8438 125.59 39.418 124.723 39.9336C123.879 40.4258 123.035 40.8359 122.191 41.1641C121.863 41 121.559 40.8594 121.277 40.7422C120.996 40.6016 120.656 40.5664 120.258 40.6367C119.719 41.0352 119.391 41.5625 119.273 42.2188C119.156 42.875 119.227 43.5078 119.484 44.1172C119.648 44.5156 119.848 44.7617 120.082 44.8555C120.316 44.9492 120.562 44.9961 120.82 44.9961C121.102 44.9727 121.371 44.9609 121.629 44.9609C121.91 44.9375 122.18 45.0195 122.438 45.207L122.719 44.9609C122.883 45.1719 123.035 45.2656 123.176 45.2422C123.34 45.2188 123.504 45.1719 123.668 45.1016C123.832 45.0078 123.984 44.9492 124.125 44.9258C124.289 44.8789 124.441 44.9727 124.582 45.207C124.816 44.9023 125.109 44.7383 125.461 44.7148C125.836 44.6914 126.199 44.6914 126.551 44.7148C126.926 44.7148 127.277 44.6797 127.605 44.6094C127.934 44.5391 128.191 44.293 128.379 43.8711C128.73 43.9414 129 43.9062 129.188 43.7656C129.398 43.625 129.586 43.4727 129.75 43.3086C129.938 43.1211 130.113 42.9453 130.277 42.7812C130.465 42.6172 130.723 42.5352 131.051 42.5352C131.426 42.2773 131.777 41.9961 132.105 41.6914C132.434 41.3633 132.75 41.0469 133.055 40.7422C133.383 40.4141 133.699 40.0977 134.004 39.793C134.332 39.4883 134.695 39.2305 135.094 39.0195C135.328 38.9961 135.539 38.8789 135.727 38.668C135.914 38.457 136.102 38.2461 136.289 38.0352C136.5 37.8242 136.723 37.6484 136.957 37.5078C137.191 37.3672 137.461 37.3438 137.766 37.4375ZM121.98 17.9961C121.863 18.1367 121.711 18.3359 121.523 18.5938C121.359 18.8516 121.207 19.1328 121.066 19.4375C120.926 19.7188 120.809 20.0117 120.715 20.3164C120.645 20.5977 120.645 20.832 120.715 21.0195C120.551 21.1367 120.352 21.3359 120.117 21.6172C119.906 21.875 119.707 22.168 119.52 22.4961C119.332 22.8008 119.168 23.1172 119.027 23.4453C118.91 23.75 118.875 24.0078 118.922 24.2188C118.547 24.3828 118.336 24.6172 118.289 24.9219C118.242 25.2031 118.207 25.4961 118.184 25.8008C118.184 26.082 118.125 26.3516 118.008 26.6094C117.914 26.8438 117.621 26.9961 117.129 27.0664L117.551 27.7344C117.574 27.9219 117.574 28.0625 117.551 28.1562C117.527 28.2266 117.48 28.2969 117.41 28.3672C117.34 28.4141 117.258 28.4727 117.164 28.543C117.094 28.5898 117.023 28.6719 116.953 28.7891C117.188 28.9766 117.246 29.1406 117.129 29.2812C117.035 29.4219 116.895 29.5742 116.707 29.7383C116.543 29.9023 116.402 30.1016 116.285 30.3359C116.168 30.5703 116.215 30.8633 116.426 31.2148C116.027 31.5664 115.734 32.0586 115.547 32.6914C115.383 33.3008 115.254 33.9688 115.16 34.6953C115.066 35.3984 114.984 36.1133 114.914 36.8398C114.844 37.5664 114.727 38.2227 114.562 38.8086C115.453 37.0039 116.379 35.2461 117.34 33.5352C118.301 31.8242 119.191 30.0547 120.012 28.2266C119.895 27.8281 119.93 27.4883 120.117 27.207C120.305 26.9023 120.516 26.6211 120.75 26.3633C120.984 26.082 121.184 25.8242 121.348 25.5898C121.512 25.332 121.512 25.0508 121.348 24.7461C121.465 24.6289 121.582 24.5117 121.699 24.3945C121.84 24.2539 122.004 24.1953 122.191 24.2188C122.145 24.0078 122.156 23.75 122.227 23.4453C122.32 23.1172 122.438 22.8008 122.578 22.4961C122.719 22.168 122.871 21.875 123.035 21.6172C123.223 21.3359 123.41 21.1367 123.598 21.0195C123.527 20.7148 123.586 20.3867 123.773 20.0352C123.961 19.6602 124.137 19.2969 124.301 18.9453C124.465 18.5938 124.559 18.2539 124.582 17.9258C124.605 17.5977 124.43 17.3164 124.055 17.082L121.98 17.9961ZM127.852 32.0234C127.711 31.8359 127.57 31.6602 127.43 31.4961C127.289 31.3086 127.148 31.1211 127.008 30.9336C126.75 30.6289 126.551 30.5352 126.41 30.6523C126.27 30.7461 126.117 30.8984 125.953 31.1094C125.812 31.2969 125.637 31.4727 125.426 31.6367C125.215 31.7773 124.934 31.7305 124.582 31.4961C124.043 31.9414 123.469 32.3984 122.859 32.8672C122.273 33.3359 121.699 33.8281 121.137 34.3438C120.598 34.8594 120.105 35.4219 119.66 36.0312C119.238 36.6172 118.922 37.2734 118.711 38C118.945 38.375 119.215 38.6094 119.52 38.7031C119.848 38.7969 120.164 38.8438 120.469 38.8438C120.773 38.8203 121.055 38.7852 121.312 38.7383C121.57 38.6914 121.77 38.7031 121.91 38.7734C122.191 38.5391 122.484 38.3516 122.789 38.2109C123.117 38.0703 123.445 37.9414 123.773 37.8242C124.125 37.6836 124.453 37.543 124.758 37.4023C125.086 37.2617 125.391 37.0859 125.672 36.875C126.445 36.3125 127.02 35.5977 127.395 34.7305C127.793 33.8633 127.945 32.9609 127.852 32.0234ZM160.582 36.2422C160.371 36.4531 160.207 36.6172 160.09 36.7344C159.996 36.8516 159.902 36.9688 159.809 37.0859C159.738 37.1797 159.645 37.2852 159.527 37.4023C159.434 37.5195 159.281 37.6953 159.07 37.9297C158.883 38.1172 158.707 38.3164 158.543 38.5273C158.379 38.7383 158.191 38.9258 157.98 39.0898C157.699 39.0195 157.477 39.0547 157.312 39.1953C157.172 39.3359 157.031 39.5 156.891 39.6875C156.773 39.8516 156.656 40.0156 156.539 40.1797C156.445 40.3203 156.316 40.3789 156.152 40.3555C155.59 40.6602 155.027 40.9297 154.465 41.1641C153.902 41.375 153.363 41.6914 152.848 42.1133L152.566 41.832L148.91 43.5898C148.793 43.6367 148.676 43.707 148.559 43.8008C148.441 43.8945 148.324 43.9766 148.207 44.0469C147.691 44.3281 147.152 44.5859 146.59 44.8203C146.051 45.0312 145.512 45.2305 144.973 45.418L144.516 45.5586C144.703 46.0273 144.703 46.3555 144.516 46.543C144.328 46.7305 144.059 46.8711 143.707 46.9648C143.355 47.0352 142.969 47.082 142.547 47.1055C142.125 47.1289 141.797 47.2109 141.562 47.3516C141.281 47.3047 140.988 47.2812 140.684 47.2812C140.402 47.3047 140.109 47.3398 139.805 47.3867C139.477 47.4336 139.172 47.457 138.891 47.457C138.609 47.457 138.305 47.4219 137.977 47.3516H137.906C137.508 47.5391 137.156 47.5742 136.852 47.457C136.57 47.3633 136.312 47.1992 136.078 46.9648C135.844 46.707 135.621 46.4141 135.41 46.0859C135.223 45.7344 135.023 45.418 134.812 45.1367C134.672 44.9492 134.496 44.6797 134.285 44.3281C134.074 43.9766 133.898 43.6016 133.758 43.2031C133.594 42.8047 133.5 42.4062 133.477 42.0078C133.43 41.5859 133.512 41.2227 133.723 40.918C133.934 40.6133 134.109 40.2852 134.25 39.9336C134.367 39.582 134.426 39.1719 134.426 38.7031C134.426 38.5391 134.426 38.3867 134.426 38.2461C134.402 38.1055 134.391 37.9531 134.391 37.7891C134.508 37.7891 134.637 37.8008 134.777 37.8242C134.918 37.8242 135.047 37.8242 135.164 37.8242C135.305 37.8008 135.41 37.7539 135.48 37.6836C135.574 37.5898 135.621 37.4375 135.621 37.2266C135.621 37.1094 135.574 37.0156 135.48 36.9453C135.41 36.875 135.363 36.8047 135.34 36.7344C135.48 36.5234 135.609 36.3594 135.727 36.2422C135.867 36.1016 135.984 35.9727 136.078 35.8555C136.172 35.7148 136.242 35.5625 136.289 35.3984C136.336 35.2109 136.324 34.9648 136.254 34.6602C136.535 34.168 136.863 33.7344 137.238 33.3594C137.637 32.9609 138.047 32.5977 138.469 32.2695C138.891 31.918 139.324 31.5781 139.77 31.25C140.215 30.9219 140.637 30.5703 141.035 30.1953C141.48 30.3828 141.832 30.3828 142.09 30.1953C142.371 30.0078 142.617 29.8086 142.828 29.5977C143.039 29.3633 143.25 29.1758 143.461 29.0352C143.672 28.8945 143.953 28.9531 144.305 29.2109L144.375 29.2812C145.008 28.6484 145.641 28.3672 146.273 28.4375C146.93 28.5078 147.48 28.7188 147.926 29.0703C148.395 29.4219 148.699 29.832 148.84 30.3008C148.98 30.7461 148.852 31.0508 148.453 31.2148C148.711 31.4727 148.84 31.7773 148.84 32.1289C148.84 32.4805 148.746 32.7852 148.559 33.043C148.348 33.3242 148.16 33.6172 147.996 33.9219C147.855 34.2031 147.703 34.5078 147.539 34.8359C147.305 35.375 147.047 35.8906 146.766 36.3828C146.484 36.8516 146.086 37.25 145.57 37.5781C145.148 37.4609 144.855 37.5078 144.691 37.7188C144.551 37.9297 144.445 38.1641 144.375 38.4219C144.305 38.6562 144.223 38.8438 144.129 38.9844C144.035 39.125 143.836 39.0781 143.531 38.8438L143.461 38.7734L143.391 38.8438C143.203 39.0312 143.051 39.2422 142.934 39.4766C142.84 39.7109 142.699 39.8867 142.512 40.0039C142.301 39.9336 142.078 39.875 141.844 39.8281C141.609 39.7812 141.387 39.7344 141.176 39.6875C141.176 40.1797 141.082 40.5664 140.895 40.8477C140.707 41.1289 140.461 41.3633 140.156 41.5508C139.875 41.7148 139.547 41.8555 139.172 41.9727C138.797 42.0664 138.422 42.1953 138.047 42.3594C137.695 42.5 137.355 42.6875 137.027 42.9219C136.723 43.1328 136.477 43.4375 136.289 43.8359C136.523 44.0938 136.816 44.2461 137.168 44.293C137.52 44.3164 137.883 44.3164 138.258 44.293C138.633 44.2461 138.996 44.2227 139.348 44.2227C139.723 44.2227 140.051 44.3164 140.332 44.5039L140.367 44.5391L140.402 44.5039C140.965 44.4336 141.504 44.3047 142.02 44.1172C142.559 43.9062 143.074 43.6953 143.566 43.4844C144.082 43.25 144.598 43.0391 145.113 42.8516C145.652 42.6406 146.203 42.4883 146.766 42.3945C146.883 42.582 147.035 42.6875 147.223 42.7109C147.434 42.7344 147.633 42.7227 147.82 42.6758L147.855 42.6055C147.902 42.4414 147.949 42.3008 147.996 42.1836C148.043 42.043 148.113 41.8906 148.207 41.7266C148.371 41.4688 148.57 41.2695 148.805 41.1289C149.039 40.9883 149.285 40.8828 149.543 40.8125C149.824 40.7422 150.117 40.6953 150.422 40.6719C150.727 40.6484 151.031 40.6133 151.336 40.5664H151.406L151.441 40.4609C151.535 40.1797 151.652 39.9922 151.793 39.8984C151.957 39.7812 152.121 39.6992 152.285 39.6523C152.473 39.6055 152.66 39.5703 152.848 39.5469C153.059 39.5234 153.258 39.4531 153.445 39.3359C153.867 39.4766 154.219 39.4297 154.5 39.1953C154.781 38.9609 155.051 38.7148 155.309 38.457L155.59 38.8086L155.695 38.668C156.047 38.3398 156.305 38.0938 156.469 37.9297C156.656 37.7656 156.832 37.625 156.996 37.5078C157.16 37.3672 157.348 37.2383 157.559 37.1211C157.793 36.9805 158.109 36.7812 158.508 36.5234C158.836 36.3125 159.152 36.1016 159.457 35.8906C159.785 35.6797 160.102 35.4453 160.406 35.1875C160.523 35.2344 160.582 35.3281 160.582 35.4688C160.582 35.5859 160.582 35.7031 160.582 35.8203C160.559 35.8672 160.535 35.9375 160.512 36.0312C160.512 36.125 160.535 36.1953 160.582 36.2422ZM146.027 31.8477C146.004 31.8242 145.98 31.8125 145.957 31.8125C145.957 31.8125 145.945 31.8008 145.922 31.7773C145.43 31.5195 145.02 31.4023 144.691 31.4258C144.363 31.4258 144.059 31.5195 143.777 31.707C143.52 31.8711 143.273 32.0938 143.039 32.375C142.828 32.6328 142.594 32.8789 142.336 33.1133C142.102 33.3242 141.82 33.4883 141.492 33.6055C141.164 33.7227 140.766 33.7109 140.297 33.5703C140.227 33.9453 140.156 34.3203 140.086 34.6953C140.039 35.0469 140.004 35.4102 139.98 35.7852C139.582 35.9258 139.266 36.125 139.031 36.3828C138.82 36.6406 138.633 36.9219 138.469 37.2266C138.328 37.5312 138.188 37.8594 138.047 38.2109C137.93 38.5391 137.766 38.8555 137.555 39.1602L137.695 39.3359C137.789 39.2891 137.895 39.3242 138.012 39.4414C138.129 39.5586 138.211 39.6406 138.258 39.6875C138.516 39.3125 138.855 38.9961 139.277 38.7383C139.723 38.4805 140.168 38.2461 140.613 38.0352C141.082 37.8008 141.527 37.5547 141.949 37.2969C142.371 37.0391 142.688 36.6992 142.898 36.2773C143.648 36.0664 144.211 35.6445 144.586 35.0117C144.961 34.3789 145.277 33.7227 145.535 33.043C145.582 32.9023 145.664 32.7031 145.781 32.4453C145.922 32.1641 146.004 31.9648 146.027 31.8477Z" fill="#FDDBE8"/>
<path d="M23.2218 15.0858C23.0545 15.265 22.8872 16.0469 22.7365 17.3095L22.6445 18.1728L20.3686 18.2299C12.7126 18.4172 7.03122 19.305 3.83492 20.82C3.13208 21.1459 2.84759 21.3413 2.41249 21.773C2.03597 22.1396 1.82678 22.4165 1.75985 22.6446C1.60924 23.1577 1.62597 50.208 1.77658 50.6316C2.30372 52.057 5.07328 53.2706 9.65016 54.0689C13.4405 54.7286 16.5782 54.9648 21.6572 54.9648C27.0541 54.9648 30.652 54.6716 34.5093 53.9141C38.6343 53.0996 41.0441 51.9755 41.5378 50.6316C41.6298 50.3872 41.6465 47.7237 41.6465 36.6055L41.6549 22.8808L41.4625 22.4735C41.0608 21.6427 39.8308 20.8363 38.057 20.2336L37.3458 19.9974L37.3541 19.6879C37.3625 19.5168 37.396 18.9141 37.4294 18.3358C37.488 17.3828 37.488 17.285 37.3374 17.1303C37.1868 16.9674 37.1282 16.9592 36.2078 17.0081C34.2834 17.1058 32.5932 17.5701 31.4469 18.3195C30.7942 18.7349 30.7942 18.7349 30.3089 18.6778C30.0328 18.6453 29.7483 18.6127 29.673 18.6127C29.5893 18.6045 29.3969 18.4091 29.2463 18.1728C28.4514 16.9836 26.9034 15.9573 24.8869 15.3057C23.7239 14.9229 23.4059 14.8822 23.2218 15.0858ZM26.1337 16.8696C27.6649 17.6271 28.5685 18.5557 28.7693 19.5738C28.8948 20.2417 28.8363 20.3639 28.3593 20.3802C28.1418 20.3802 27.8071 20.4372 27.6147 20.5024L27.2632 20.6246L26.8114 19.8752C26.5687 19.4679 25.983 18.4987 25.5145 17.7249C25.0543 16.9511 24.6694 16.2994 24.6694 16.2831C24.6694 16.2261 25.4977 16.5519 26.1337 16.8696ZM26.1504 20.7223L26.4181 21.1703L26.1588 21.4961C26.0165 21.6753 25.8575 21.9359 25.7906 22.0826C25.6818 22.3188 25.6567 22.3351 25.4141 22.2699C24.6945 22.0663 24.1841 21.5205 23.8996 20.6164C23.7323 20.1033 23.7071 19.8589 23.7071 18.6045C23.7071 17.8226 23.7406 17.1058 23.7741 17.0244C23.8327 16.8778 24.5188 17.9366 26.1504 20.7223ZM33.5805 20.1521L31.405 22.2699L31.246 21.9604C31.1624 21.7975 30.995 21.5531 30.8863 21.4228C30.7189 21.2273 30.6938 21.1377 30.744 20.8526C30.9532 19.5901 32.2836 18.6371 34.4172 18.1973C35.9903 17.8796 36.0405 17.7574 33.5805 20.1521ZM36.2999 19.5901C36.0656 21.154 35.4882 22.498 34.7938 23.1089C34.1411 23.679 33.3881 23.8012 32.4258 23.4835C32.1413 23.3939 31.8903 23.2962 31.8652 23.2799C31.8485 23.2555 32.8442 22.2536 34.0825 21.0481C35.3209 19.8426 36.3501 18.8733 36.3668 18.8896C36.3919 18.9059 36.3584 19.2236 36.2999 19.5901ZM22.6947 19.6879C22.8621 21.325 23.5231 22.4735 24.6024 22.9948C24.8869 23.1333 25.1965 23.2473 25.2969 23.2473C25.4643 23.2473 25.4977 23.3043 25.5479 23.6953C25.6651 24.6564 26.3763 25.5687 27.3302 26.0004C27.7402 26.1877 27.9159 26.2203 28.5602 26.2203C29.2463 26.2203 29.3718 26.1959 29.8738 25.9515C30.493 25.6583 31.0369 25.1289 31.2962 24.5668C31.3799 24.3795 31.4803 24.2248 31.5138 24.2248C31.5473 24.2248 31.7815 24.3062 32.0326 24.4039C32.3924 24.5424 32.6768 24.5831 33.3295 24.5831C34.116 24.5913 34.208 24.575 34.7268 24.3225C35.095 24.1514 35.4297 23.9071 35.7058 23.6057C36.1409 23.1414 36.7015 22.1314 36.8939 21.4554C36.9525 21.2517 37.0194 21.0644 37.0529 21.0237C37.1282 20.9422 38.1992 21.3088 39.0443 21.7079C39.8392 22.0826 40.5337 22.6527 40.609 23.003C40.9437 24.4935 35.756 26.1633 28.853 26.7824C23.9833 27.2222 17.6242 27.157 12.9552 26.6276C7.49978 26.0086 3.29105 24.6809 2.74718 23.4102C2.37902 22.5387 4.11104 21.4798 7.18183 20.6897C10.8467 19.7612 15.6746 19.248 21.3727 19.191L22.6361 19.1747L22.6947 19.6879ZM29.9993 19.8833L29.8989 20.0951L29.8487 19.8996C29.7901 19.6553 29.8236 19.5738 29.9826 19.6308C30.0746 19.6716 30.083 19.7204 29.9993 19.8833ZM29.3969 21.5368C30.2922 21.9115 30.7691 22.9134 30.493 23.8338C30.0746 25.2266 28.3677 25.7398 27.2632 24.8112C26.2006 23.9315 26.3177 22.3188 27.4808 21.6509C28.1418 21.2762 28.7024 21.2436 29.3969 21.5368ZM3.00657 25.0474C3.39146 25.3162 4.73859 25.9027 5.59205 26.1715C8.11059 26.9778 11.675 27.5643 16.1348 27.9064C17.9672 28.0449 25.4894 28.0449 27.2632 27.9064C31.7062 27.5561 35.2289 26.9697 37.7223 26.1715C38.5758 25.9027 39.9229 25.3162 40.3078 25.0474C40.4417 24.9497 40.5755 24.8764 40.6006 24.8764C40.6257 24.8764 40.6508 28.7861 40.6508 33.5673C40.6508 41.9732 40.6425 42.2746 40.4835 42.6085C40.2659 43.0891 39.9062 43.2846 39.2702 43.2846C38.467 43.2846 37.6135 42.8122 37.1868 42.1524C36.7601 41.4926 36.7684 41.5822 36.7182 36.5648L36.6764 31.8405L36.4839 31.4577C35.8564 30.2196 34.3168 29.6087 33.0199 30.0893C32.3924 30.3174 31.7648 30.8713 31.472 31.4577L31.2377 31.922L31.1958 36.8499L31.154 41.7777L30.9114 42.2094C30.083 43.6593 27.9661 43.6511 27.1545 42.185C26.9787 41.8673 26.9704 41.7614 26.9285 37.9902L26.8867 34.1212L26.6106 33.5755C26.301 32.9564 25.9245 32.598 25.2551 32.2967C24.8786 32.1256 24.6777 32.0849 24.1255 32.093C23.5649 32.093 23.3808 32.1338 22.9708 32.3293C22.4102 32.598 21.8831 33.1193 21.6321 33.6569C21.4564 34.0235 21.448 34.1864 21.4062 36.9313C21.3643 39.717 21.356 39.8392 21.1802 40.1568C20.9711 40.5396 20.5694 40.898 20.1762 41.0609C19.4901 41.3379 18.3772 41.0609 17.9588 40.5071C17.4986 39.9043 17.5154 40.1242 17.4735 35.5059C17.4317 31.2134 17.4317 31.1889 17.2393 30.7165C16.8209 29.7228 15.7164 28.8838 14.5868 28.7046C12.9552 28.444 11.3152 29.4784 10.8299 31.0586C10.7212 31.4333 10.6961 31.9709 10.6961 34.3248C10.6961 35.8806 10.6626 37.3549 10.6124 37.5911C10.3363 39.0491 9.01425 40.3767 7.51652 40.6863C7.27387 40.7351 6.66306 40.7596 6.14429 40.7433C5.31593 40.7188 5.15695 40.6863 4.66328 40.4663C3.67595 40.0102 2.948 39.0979 2.74718 38.0798C2.65514 37.6155 2.62167 24.8764 2.71371 24.8764C2.73881 24.8764 2.87269 24.9497 3.00657 25.0474ZM15.047 29.8531C15.4989 30.0486 16.0009 30.5047 16.2436 30.9446C16.4276 31.2622 16.4276 31.36 16.4695 35.5873C16.5197 40.336 16.5029 40.1813 17.0552 40.9713C17.8584 42.0954 19.5319 42.4782 20.8037 41.8184C21.4229 41.5008 21.8496 41.0691 22.1508 40.4419L22.3684 39.9858L22.4102 37.0942C22.4604 33.8931 22.4437 33.942 23.0294 33.4451C23.8661 32.7365 25.163 32.9809 25.6986 33.942C25.8826 34.276 25.8826 34.3411 25.9245 38.1531L25.9663 42.0221L26.1922 42.4864C26.4767 43.0891 27.1294 43.7244 27.7485 44.0014C28.1669 44.1969 28.3259 44.2213 29.0622 44.2213C29.8069 44.2213 29.9491 44.1969 30.3758 43.9932C31.0201 43.6837 31.5807 43.1217 31.8987 42.4701L32.1581 41.9406L32.1999 37.0128C32.2417 32.5736 32.2585 32.0605 32.384 31.8324C32.5764 31.4821 33.045 31.1075 33.4132 30.9853C34.1746 30.7409 35.1535 31.1156 35.5217 31.7917L35.7142 32.1501V36.4344C35.7142 38.7884 35.756 40.955 35.7978 41.2483C35.9735 42.4212 36.7601 43.4475 37.8896 43.9688C38.626 44.3027 39.6719 44.3679 40.2576 44.1154L40.6508 43.9443V45.4838V47.0151L40.2743 47.3409C38.6009 48.7745 33.5052 49.9229 26.803 50.3872C24.8284 50.5175 18.4776 50.5175 16.5113 50.3872C9.83424 49.9229 4.70512 48.7663 3.06514 47.3572L2.66351 47.0151V43.643V40.2627L3.17391 40.6781C4.16125 41.4763 4.95614 41.737 6.38694 41.737C7.49141 41.737 8.14406 41.5985 8.96405 41.1994C9.80078 40.784 10.7295 39.8717 11.1479 39.0491C11.6499 38.0391 11.7001 37.6644 11.7001 34.4389C11.7001 31.2134 11.7169 31.1075 12.3026 30.4559C13.0305 29.6576 14.0513 29.4296 15.047 29.8531ZM3.9186 48.9944C7.32407 50.5257 14.2605 51.5113 21.6572 51.5113C29.8571 51.5113 37.3458 50.3139 40.2994 48.5383L40.6676 48.3183L40.6341 49.3283C40.609 50.2325 40.5923 50.3546 40.4166 50.5746C39.5798 51.609 36.8186 52.5701 32.8024 53.2218C26.9034 54.1748 19.0382 54.2888 12.4699 53.5068C8.38671 53.0181 4.80553 52.0489 3.4584 51.0633C2.73881 50.542 2.70535 50.4687 2.68024 49.3202L2.64677 48.3183L3.01493 48.5383C3.20738 48.6523 3.61738 48.8641 3.9186 48.9944Z" fill="#FDDBE8"/>
<path d="M19.2473 20.5675C18.2934 20.7222 17.4735 21.3331 17.0551 22.2047C16.3104 23.7278 16.9631 25.4465 18.5445 26.1633C18.9461 26.3425 19.1385 26.3832 19.7745 26.3832C20.4606 26.3832 20.5777 26.3587 21.0881 26.1144C22.1842 25.5931 22.7699 24.6645 22.7783 23.4509C22.7783 22.9052 22.7448 22.7178 22.5524 22.3269C21.9332 21.0236 20.653 20.3394 19.2473 20.5675ZM20.7785 21.7811C21.2638 22.0336 21.6989 22.6527 21.791 23.2065C21.8997 23.9559 21.4144 24.86 20.7116 25.2184C20.2263 25.4709 19.3226 25.4709 18.8541 25.2266C17.4484 24.5016 17.3563 22.5712 18.6951 21.8137C19.4063 21.4064 20.0589 21.3983 20.7785 21.7811Z" fill="#FDDBE8"/>
<path d="M19.3647 22.2699C19.0384 22.3677 18.6702 22.726 18.5531 23.0681C18.369 23.6139 18.6368 24.2573 19.1639 24.518C19.5404 24.7135 20.2517 24.6402 20.5361 24.3795C21.239 23.7442 21.1051 22.7098 20.2851 22.3432C19.9086 22.1803 19.7329 22.164 19.3647 22.2699ZM19.8835 23.2392C20.0592 23.3451 19.9672 23.6139 19.7496 23.6383C19.5237 23.6709 19.4149 23.4591 19.5655 23.2881C19.6827 23.1496 19.7329 23.1415 19.8835 23.2392Z" fill="#FDDBE8"/>
<path d="M28.5602 22.1803C28.4681 22.221 28.3091 22.335 28.2087 22.4409C27.5226 23.1659 27.9912 24.2247 28.9952 24.2247C29.9659 24.2247 30.4093 23.06 29.6981 22.4002C29.4303 22.1558 28.8781 22.0418 28.5602 22.1803ZM29.0204 23.1659C29.0204 23.2066 28.9785 23.2473 28.9283 23.2473C28.8865 23.2473 28.8697 23.2066 28.8948 23.1659C28.9199 23.117 28.9618 23.0844 28.9869 23.0844C29.0036 23.0844 29.0204 23.117 29.0204 23.1659Z" fill="#FDDBE8"/>
<path d="M4.01899 28.6395C3.96042 28.6965 3.91858 28.9816 3.91858 29.3318C3.91858 29.8694 3.93531 29.9346 4.12776 30.0568C4.37041 30.2115 4.6298 30.1464 4.80551 29.8776C4.96449 29.6495 4.93102 28.8757 4.76367 28.6721C4.6298 28.5173 4.16123 28.501 4.01899 28.6395Z" fill="#FDDBE8"/>
<path d="M4.01899 31.246C3.94368 31.3193 3.91858 31.9465 3.91858 33.8036C3.91858 35.9376 3.93531 36.2879 4.05246 36.3938C4.21143 36.5567 4.50429 36.5567 4.72184 36.4101C4.87245 36.296 4.88081 36.1657 4.90591 33.9421C4.93102 31.303 4.91428 31.2053 4.42061 31.1645C4.26164 31.1482 4.07756 31.189 4.01899 31.246Z" fill="#FDDBE8"/>
</svg>
